# xmcd CD database file
#
# Track frame offsets:
#	150
#	20379
#	35175
#	56719
#	76542
#	95363
#	110885
#	135204
#	150259
#	169496
#	188317
#	213015
#	228139
#	246809
#
# Disc length: 3527 seconds
#
# Revision: 0
# Processed by: cddbd v1.5.1PL2 Copyright (c) Steve Scherf et al.
# Submitted via: Feurio! 1.68 - http://www.feurio.com
#
DISCID=a10dc50e
DTITLE=Manfred Häder - Exbluesiv
DYEAR=2006
DGENRE=
TTITLE0=Lange Schatten
TTITLE1=Ich pack meine Koffer
TTITLE2=Exbluesiv
TTITLE3=Heiß wie Eis
TTITLE4=Ellen Margarethe
TTITLE5=Schieb es auf
TTITLE6=Ebbe und Flut
TTITLE7=Unten angelangt
TTITLE8=Blues hat keine Farbe
TTITLE9=Alles versaut
TTITLE10=Ein Dutzend Tränen
TTITLE11=Zu schön
TTITLE12=Verbrannte Briefe
TTITLE13=Manjanam
EXTD=
EXTT0=
EXTT1=
EXTT2=
EXTT3=
EXTT4=
EXTT5=
EXTT6=
EXTT7=
EXTT8=
EXTT9=
EXTT10=
EXTT11=
EXTT12=
EXTT13=
PLAYORDER=
